<mxfile host="app.diagrams.net" modified="2024-04-25T08:32:34.434Z" agent="Mozilla/5.0 (Windows NT 10.0; Win64; x64) AppleWebKit/537.36 (KHTML, like Gecko) Chrome/124.0.0.0 Safari/537.36" etag="wD5tT11PeXQOSv_VHe-N" version="24.2.8" type="device">
  <diagram name="Page-1" id="GUUtIKl9vRL_AFnDjM-b">
    <mxGraphModel dx="1796" dy="813" grid="0" gridSize="10" guides="1" tooltips="1" connect="1" arrows="1" fold="1" page="1" pageScale="1" pageWidth="850" pageHeight="1100" math="0" shadow="0">
      <root>
        <mxCell id="0" />
        <mxCell id="1" parent="0" />
        <mxCell id="zbStcVT1LtuY0gi-xSpx-1" value="&lt;font style=&quot;font-size: 24px;&quot;&gt;FLOW DIAGRAM - GUI&lt;/font&gt;" style="rounded=1;whiteSpace=wrap;html=1;" parent="1" vertex="1">
          <mxGeometry x="285" y="33" width="313" height="54" as="geometry" />
        </mxCell>
        <mxCell id="zbStcVT1LtuY0gi-xSpx-26" style="edgeStyle=orthogonalEdgeStyle;rounded=0;orthogonalLoop=1;jettySize=auto;html=1;" parent="1" source="zbStcVT1LtuY0gi-xSpx-4" edge="1">
          <mxGeometry relative="1" as="geometry">
            <mxPoint x="446" y="487.7619192940849" as="targetPoint" />
          </mxGeometry>
        </mxCell>
        <mxCell id="zbStcVT1LtuY0gi-xSpx-4" value="" style="rounded=0;whiteSpace=wrap;html=1;" parent="1" vertex="1">
          <mxGeometry x="101" y="311" width="690" height="107" as="geometry" />
        </mxCell>
        <mxCell id="zbStcVT1LtuY0gi-xSpx-13" style="edgeStyle=orthogonalEdgeStyle;rounded=0;orthogonalLoop=1;jettySize=auto;html=1;" parent="1" source="zbStcVT1LtuY0gi-xSpx-6" edge="1">
          <mxGeometry relative="1" as="geometry">
            <mxPoint x="441.5" y="247.76191929408492" as="targetPoint" />
          </mxGeometry>
        </mxCell>
        <mxCell id="zbStcVT1LtuY0gi-xSpx-6" value="HOME PAGE" style="shape=process;whiteSpace=wrap;html=1;backgroundOutline=1;" parent="1" vertex="1">
          <mxGeometry x="386.5" y="113" width="110" height="60" as="geometry" />
        </mxCell>
        <mxCell id="zbStcVT1LtuY0gi-xSpx-21" value="&lt;font style=&quot;font-size: 18px;&quot;&gt;HOME&lt;/font&gt;" style="rounded=0;whiteSpace=wrap;html=1;" parent="1" vertex="1">
          <mxGeometry x="155" y="334" width="131" height="60" as="geometry" />
        </mxCell>
        <mxCell id="zbStcVT1LtuY0gi-xSpx-22" value="&lt;font style=&quot;font-size: 18px;&quot;&gt;AUDIO&lt;/font&gt;" style="rounded=0;whiteSpace=wrap;html=1;" parent="1" vertex="1">
          <mxGeometry x="361" y="334" width="159.5" height="60" as="geometry" />
        </mxCell>
        <mxCell id="zbStcVT1LtuY0gi-xSpx-23" value="&lt;font style=&quot;font-size: 18px;&quot;&gt;YOUTUBE&lt;/font&gt;" style="rounded=0;whiteSpace=wrap;html=1;" parent="1" vertex="1">
          <mxGeometry x="585" y="334" width="162" height="60" as="geometry" />
        </mxCell>
        <mxCell id="zbStcVT1LtuY0gi-xSpx-24" value="&lt;font style=&quot;font-size: 24px;&quot;&gt;Navigation Bar&lt;/font&gt;" style="text;html=1;align=center;verticalAlign=middle;whiteSpace=wrap;rounded=0;" parent="1" vertex="1">
          <mxGeometry x="358" y="262" width="180.5" height="30" as="geometry" />
        </mxCell>
        <mxCell id="zbStcVT1LtuY0gi-xSpx-27" value="" style="endArrow=none;html=1;rounded=0;" parent="1" edge="1">
          <mxGeometry width="50" height="50" relative="1" as="geometry">
            <mxPoint x="163" y="484" as="sourcePoint" />
            <mxPoint x="657" y="487" as="targetPoint" />
          </mxGeometry>
        </mxCell>
        <mxCell id="zbStcVT1LtuY0gi-xSpx-28" value="" style="endArrow=classic;html=1;rounded=0;" parent="1" edge="1">
          <mxGeometry width="50" height="50" relative="1" as="geometry">
            <mxPoint x="169" y="485" as="sourcePoint" />
            <mxPoint x="169" y="540" as="targetPoint" />
          </mxGeometry>
        </mxCell>
        <mxCell id="zbStcVT1LtuY0gi-xSpx-29" value="" style="endArrow=classic;html=1;rounded=0;" parent="1" edge="1">
          <mxGeometry width="50" height="50" relative="1" as="geometry">
            <mxPoint x="652" y="491" as="sourcePoint" />
            <mxPoint x="652" y="541" as="targetPoint" />
          </mxGeometry>
        </mxCell>
        <mxCell id="zbStcVT1LtuY0gi-xSpx-32" style="edgeStyle=orthogonalEdgeStyle;rounded=0;orthogonalLoop=1;jettySize=auto;html=1;" parent="1" source="zbStcVT1LtuY0gi-xSpx-30" edge="1">
          <mxGeometry relative="1" as="geometry">
            <mxPoint x="173.5" y="630.6190185546875" as="targetPoint" />
          </mxGeometry>
        </mxCell>
        <mxCell id="zbStcVT1LtuY0gi-xSpx-30" value="&lt;font style=&quot;font-size: 18px;&quot;&gt;AUDIO&amp;nbsp;&lt;/font&gt;" style="rounded=0;whiteSpace=wrap;html=1;" parent="1" vertex="1">
          <mxGeometry x="119" y="546" width="109" height="36" as="geometry" />
        </mxCell>
        <mxCell id="zbStcVT1LtuY0gi-xSpx-33" style="edgeStyle=orthogonalEdgeStyle;rounded=0;orthogonalLoop=1;jettySize=auto;html=1;" parent="1" source="zbStcVT1LtuY0gi-xSpx-31" edge="1">
          <mxGeometry relative="1" as="geometry">
            <mxPoint x="666" y="643" as="targetPoint" />
          </mxGeometry>
        </mxCell>
        <mxCell id="zbStcVT1LtuY0gi-xSpx-31" value="&lt;span style=&quot;font-size: 18px;&quot;&gt;YOUTUBE&lt;/span&gt;" style="rounded=0;whiteSpace=wrap;html=1;" parent="1" vertex="1">
          <mxGeometry x="611.5" y="546" width="109" height="43" as="geometry" />
        </mxCell>
        <mxCell id="zbStcVT1LtuY0gi-xSpx-41" style="edgeStyle=orthogonalEdgeStyle;rounded=0;orthogonalLoop=1;jettySize=auto;html=1;entryX=0.5;entryY=0;entryDx=0;entryDy=0;" parent="1" source="zbStcVT1LtuY0gi-xSpx-34" target="zbStcVT1LtuY0gi-xSpx-40" edge="1">
          <mxGeometry relative="1" as="geometry" />
        </mxCell>
        <mxCell id="zbStcVT1LtuY0gi-xSpx-34" value="&lt;font style=&quot;font-size: 18px;&quot;&gt;&lt;br&gt;&lt;br&gt;&lt;br&gt;&lt;font style=&quot;&quot;&gt;Microphone Acess&amp;nbsp;&lt;br&gt;&lt;/font&gt;&lt;br&gt;&lt;font style=&quot;&quot;&gt;Recognition&lt;/font&gt;&lt;br&gt;&lt;br&gt;&lt;font style=&quot;&quot;&gt;Tamil Language - &quot;ta-IN&quot;&lt;br&gt;&lt;/font&gt;&lt;br&gt;&lt;/font&gt;" style="whiteSpace=wrap;html=1;aspect=fixed;" parent="1" vertex="1">
          <mxGeometry x="65" y="639" width="258" height="258" as="geometry" />
        </mxCell>
        <mxCell id="zbStcVT1LtuY0gi-xSpx-44" style="edgeStyle=orthogonalEdgeStyle;rounded=0;orthogonalLoop=1;jettySize=auto;html=1;" parent="1" source="zbStcVT1LtuY0gi-xSpx-35" edge="1">
          <mxGeometry relative="1" as="geometry">
            <mxPoint x="666.0000000000002" y="947.7619192940849" as="targetPoint" />
          </mxGeometry>
        </mxCell>
        <mxCell id="zbStcVT1LtuY0gi-xSpx-35" value="&lt;font style=&quot;font-size: 18px;&quot;&gt;&lt;br&gt;&lt;br&gt;Youtube Shorts URL&lt;br&gt;&lt;br&gt;video to mp3&lt;br&gt;&lt;br&gt;mp3 to whisper model&lt;br&gt;&lt;br&gt;return segments&lt;/font&gt;" style="whiteSpace=wrap;html=1;aspect=fixed;" parent="1" vertex="1">
          <mxGeometry x="535" y="652" width="262" height="262" as="geometry" />
        </mxCell>
        <mxCell id="zbStcVT1LtuY0gi-xSpx-38" value="&lt;h1&gt;&lt;span style=&quot;background-color: initial;&quot;&gt;&lt;font style=&quot;font-size: 18px;&quot;&gt;WebKitSpeechRecognition&lt;/font&gt;&lt;/span&gt;&lt;/h1&gt;&lt;h1&gt;&lt;br&gt;&lt;/h1&gt;" style="text;html=1;spacing=5;spacingTop=-20;whiteSpace=wrap;overflow=hidden;rounded=0;" parent="1" vertex="1">
          <mxGeometry x="70" y="664" width="246" height="43" as="geometry" />
        </mxCell>
        <mxCell id="zbStcVT1LtuY0gi-xSpx-39" value="&lt;h1&gt;&lt;span style=&quot;white-space: pre;&quot;&gt;&#x9;&lt;/span&gt;Whisper Model&lt;br&gt;&lt;/h1&gt;" style="text;html=1;spacing=5;spacingTop=-20;whiteSpace=wrap;overflow=hidden;rounded=0;" parent="1" vertex="1">
          <mxGeometry x="530" y="664" width="246" height="43" as="geometry" />
        </mxCell>
        <mxCell id="zbStcVT1LtuY0gi-xSpx-40" value="&lt;font style=&quot;font-size: 18px;&quot;&gt;Transcription&lt;/font&gt;" style="rounded=0;whiteSpace=wrap;html=1;" parent="1" vertex="1">
          <mxGeometry x="134" y="932" width="120" height="60" as="geometry" />
        </mxCell>
        <mxCell id="zbStcVT1LtuY0gi-xSpx-43" value="&lt;font style=&quot;font-size: 18px;&quot;&gt;Transcription&lt;/font&gt;" style="rounded=0;whiteSpace=wrap;html=1;" parent="1" vertex="1">
          <mxGeometry x="611.5" y="952" width="120" height="60" as="geometry" />
        </mxCell>
      </root>
    </mxGraphModel>
  </diagram>
</mxfile>
